<svg enable-background="new 0 0 100 100" height="512" viewBox="0 0 100 100" width="512" xmlns="http://www.w3.org/2000/svg"><g id="Layer_35"><g><g><path d="m32.9 70.2c3.3 0 5.9-2.7 5.9-5.9 0-3.3-2.7-5.9-5.9-5.9s-5.9 2.6-5.9 5.8c0 3.3 2.6 6 5.9 6zm0-8.9c1.6 0 2.9 1.3 2.9 2.9s-1.3 2.9-2.9 2.9-2.9-1.3-2.9-2.9 1.3-2.9 2.9-2.9z"/><path d="m59 74.4v9.9c0 .8.7 1.5 1.5 1.5h19.8c.8 0 1.5-.7 1.5-1.5v-9.9c0-.8-.7-1.5-1.5-1.5h-19.8c-.8 0-1.5.7-1.5 1.5zm3 1.5h16.8v6.9h-16.8z"/><path d="m94.1 64.2-22.5-22.5c-.3-.3-.7-.4-1.1-.4h-11.5v-6.9-3.2c0-.3.2-.5.5-.5h5.5c3.1 0 5.6-2.5 5.6-5.6 0-.9-.2-1.8-.6-2.6h5.3c2.8 0 5.1-2.3 5.1-5.1 0-.9-.1-1.6-.4-2.1h8c2.8 0 5.1-2.3 5.1-5.1 0-2.9-2.3-5.2-5.1-5.2h-28.8c-2.8 0-5.1 2.3-5.1 5.1 0 .8.1 1.6.4 2.1h-8c-2.8 0-5.1 2.3-5.1 5.1s2.3 5.1 5.1 5.1h1.7c-.4.9-.7 2-.7 3.4v8.4.1 6.8h-6.6l-3.8-3.8c-2.3-2.3-6.1-2.3-8.4 0l-21.5 21.7c-1.1 1.1-1.7 2.6-1.7 4.2s.6 3.1 1.7 4.2 2.6 1.7 4.2 1.7c.6 0 1.1-.1 1.6-.2v24.6c0 .8.7 1.5 1.5 1.5h36.8.1 38.1c.8 0 1.5-.7 1.5-1.5v-26.8h2.1c.6 0 1.2-.4 1.4-.9.2-.6.1-1.2-.4-1.6zm-47.6-44.7c-1.2 0-2.1-.9-2.1-2.1s.9-2.1 2.1-2.1h15.3c.8 0 1.5-.7 1.5-1.5s-.7-1.5-1.5-1.5h-.4c-3.5 0-4.3-.4-4.3-2.1 0-1.2.9-2.1 2.1-2.1h28.8c1.2 0 2.1.9 2.1 2.1s-.9 2.1-2.1 2.1h-15.6c-.8 0-1.5.7-1.5 1.5s.7 1.5 1.5 1.5h.6c1.2 0 2.5 0 3.4.3.6.3 1 .6 1 1.8s-.9 2.1-2.1 2.1h-10.3c-.8 0-1.5.7-1.5 1.5s.7 1.5 1.5 1.5c1.4 0 2.6 1.1 2.6 2.6s-1.1 2.6-2.6 2.6h-5.4c-1.9 0-3.5 1.6-3.5 3.5v1.7h-5.5v-6.9c0-2.6 1-3.4 4.2-3.4.8 0 1.5-.7 1.5-1.5s-.7-1.5-1.5-1.5zm4 16.3h5.5v5.4h-5.5zm19.4 8.4 19.5 19.5h-29c.2-1.7-.4-3.4-1.7-4.7l-14.8-14.8zm-60.6 21c-.6-.5-.9-1.3-.9-2.1s.3-1.5.9-2.1l21.6-21.6c1.1-1.1 3-1.1 4.1 0l21.6 21.6c1.1 1.1 1.1 3 0 4.1s-3 1.1-4.1 0l-18.5-18.3c-.3-.3-.7-.4-1.1-.4s-.8.1-1.1.4l-18.4 18.4c-1.1 1.1-3 1.1-4.1 0zm6.7 1.7 17-17 17 17v25h-10v-13.9c0-.8-.7-1.5-1.5-1.5h-11.3c-.8 0-1.5.7-1.5 1.5v14h-9.7zm21 25.1h-8.3v-12.5h8.3zm51 0h-35.1v-23.2c2 .6 4.2.1 5.8-1.5.2-.2.4-.4.5-.6h28.8z"/></g></g></g></svg>