<svg clip-rule="evenodd" fill-rule="evenodd" height="512" image-rendering="optimizeQuality" shape-rendering="geometricPrecision" text-rendering="geometricPrecision" viewBox="0 0 1.70666 1.70666" width="512" xmlns="http://www.w3.org/2000/svg"><g id="Layer_x0020_1"><path d="m1.07506 1.50758-.0149173-.0066811c-.0766496-.0856299-.33737-.0854055-.41361.00000394-.0321102.0359724-.0580984-.0744606-.199756-.0870984-.0103189-.00091732-.0182165-.00956693-.0182165-.0199291v-.620591c0-.0110354.00895669-.0199961.0199961-.0199961h.809528c.0110394 0 .0199961.00896063.0199961.0199961v.620606c0 .0426299-.0762835-.0086811-.188693.10761-.00374803.00388583-.0089252.00607874-.0143268.00607874zm-.221728-.110996c.0937913 0 .174539.0232874.221575.0630709.049311-.0462559.104051-.0742638.163197-.0834567v-.582913h-.769539v.582929c.0591535.00919685.113894.0372008.163193.0834567.0470472-.0397992.127787-.0630866.221575-.0630866z"/><path d="m1.35852.793283h-1.01037c-.0110354 0-.0199961-.00896063-.0199961-.02v-.238846c0-.0110354.00896063-.0199961.0199961-.0199961l1.01037-.00000394c.0110354 0 .0199961.00895669.0199961.0199961v.238846c0 .0110433-.00895276.0200039-.0199961.0200039zm-.990374-.0399961h.970378v-.198854l-.970378-.00000394v.198858z"/><path d="m1.14581.554429h-.584949c-.0110354 0-.0199961-.00896063-.0199961-.0199961v-.198303c0-.0110394.00896063-.0199961.0199961-.0199961l.584933.00000394c.0110354 0 .0199961.00896063.0199961.0199961v.198303c.00001575.0110394-.00896063.0199921-.0199803.0199921zm-.564953-.0399921h.544937v-.158311l-.544937.00000394v.158307z"/><path d="m1.25809 1.32901h-.80952c-.0110354 0-.0199961-.0089685-.0199961-.0199961v-.178567c0-.0110394.00896063-.0199961.0199961-.0199961l.809531.00000394c.0110354 0 .0199961.0089685.0199961.0199961v.178571c0 .0110197-.0089685.0199882-.0200079.0199882zm-.789535-.0400039h.769539v-.138575h-.769539z"/><path d="m.957488 1.32901c-.0110354 0-.0199961-.0089685-.0199961-.0199961v-.178567c0-.0263268.0399921-.0263189.0399921 0v.178567c0 .0110276-.00895276.0199961-.0199961.0199961z"/><path d="m.701531 1.46236c-.0110354 0-.0199961-.0089685-.0199961-.0199961v-.13337c0-.0263268.0399921-.026315.0399921 0v.13337c0 .0110433-.00895276.0199961-.0199961.0199961z"/><path d="m1.25809.97185h-.80952c-.0110354 0-.0199961-.0089685-.0199961-.0199961v-.178571c0-.0110354.00896063-.0199961.0199961-.0199961h.809531c.0110354 0 .0199961.00896063.0199961.0199961v.178571c0 .0110354-.0089685.0199961-.0200079.0199961zm-.789535-.0400079h.769539v-.138575h-.769539z"/><path d="m1.25809 1.15044h-.80952c-.0110354 0-.0199961-.0089685-.0199961-.0199961v-.178579c0-.0110394.00896063-.0199961.0199961-.0199961l.809531-.00000787c.0110354 0 .0199961.00897244.0199961.02v.178579c0 .0110276-.0089685.02-.0200079.02zm-.789535-.0400079h.769539v-.138575h-.769539z"/><path d="m.957488 1.15044c-.0110354 0-.0199961-.0089685-.0199961-.0199961v-.178583c0-.0263268.0399921-.0263189.0399921 0v.178567c0 .0110394-.00895276.0200118-.0199961.0200118z"/><path d="m.701531.971862c-.0110354 0-.0199961-.00897244-.0199961-.0199961v-.178583c0-.0263268.0399921-.0263268.0399921 0v.178583c0 .0110394-.00895276.0199961-.0199961.0199961z"/><path d="m1.08585.26252c-.0316417 0-.00913386-.0382835-.036811-.0687677-.0164449-.0181063-.0441614-.0276299-.082374-.0282992-.114591-.00202362-.158461-.0940276-.165642-.142378-.00385827-.0259606.0355433-.0319921.0395472-.00593307.00072441.00461024.0179803.106398.126799.108319.093374.00164567.144362.0565039.138346.118984-.00099213.0103425-.0096811.0180748-.0198661.0180748z"/><path d="m.86448.26252c-.0316535 0-.00912598-.0382874-.0367953-.0687677-.0164567-.0181063-.0441614-.0276299-.0823898-.0282992-.114591-.00202362-.158465-.0940276-.165642-.142378-.00386614-.0259764.0355394-.0319606.0395472-.00593307.00072441.00459843.0179803.106398.126795.108319.0933701.00164567.144354.0564843.13835.118984-.00099606.0103425-.00970472.0180748-.0198661.0180748z"/><path d="m.643087.26252c-.0316457 0-.00911417-.0382874-.0367835-.0687677-.0164528-.0181063-.0441614-.0276299-.0823898-.0282992-.114591-.00202362-.158461-.0940276-.165642-.142378-.0038622-.0259724.0355433-.0319685.0395472-.00593307.00072441.00459843.0179803.106398.126799.108319.0933701.00164567.14435.0564843.138346.118984-.00099606.0103425-.00970472.0180748-.019878.0180748z"/><path d="m1.48626 1.70653h-1.26587c-.0110354 0-.0199961-.0089685-.0199961-.0199961v-.220783c0-.0272244.120252-.0929291.224425-.0929291.0760118 0 .145543.0292047.206937.0868465.0996772-.084315.343461-.0842953.44315 0 .0613898-.0576417.130921-.0868465.206925-.0868465.104197 0 .224433.0657362.224433.0929291l-.00000787.220783c.00001575.0110394-.00895669.0199961-.0199961.0199961zm-1.24587-.0399921h1.22587v-.19076c-.108461-.077122-.256205-.0987874-.376843.0257323-.00803937.00829528-.0215118.00809055-.0292756-.00058268-.0766732-.0856929-.337386-.0854213-.41361-.00002756-.00783465.00877953-.0213858.00875591-.0292874.00058268-.120445-.124618-.268543-.102709-.37685-.0257323v.190787z"/><path d="m.941677.735969c-.039937 0-.0829055-.0306457-.0862638-.080626-.0358228.0231811-.0841181.016315-.112827-.0175945-.0276929.0334488-.0750748.0413937-.112803.0172717-.00744488.110083-.172402.105146-.172402-.00598031v-.0269567l-.109244.00000394c-.0263228 0-.0263268-.0399921 0-.0399921h.129252c.0267953 0 .0199961.0362283.0199961.0669488 0 .061811.092626.0617638.092626 0v-.0669606c0-.0263268.0399921-.0263268.0399921 0 0 .061811.092626.0619094.092626 0 0-.0263268.0399961-.0263268.0399961 0 0 .0617992.0926063.0619252.0926063 0 0-.0263268.0399961-.0263268.0399961 0v.0669606c0 .0627677.0932323.060878.092622.00017717l-.0011378-.114606c-.00027953-.0260157.0397087-.0272835.0399764-.00038583l.00114173.114606c.00048032.0478425-.0384528.0871339-.0861535.0871339z"/></g></svg>