<svg id="Layer_1" enable-background="new 0 0 512.091 512.091" viewBox="0 0 512.091 512.091" xmlns="http://www.w3.org/2000/svg"><g><path d="m461.572 427.555-10.464 10.748 19.993 19.463c4.346 4.339 6.739 10.114 6.739 16.308-.125 20.382-24.672 30.58-39.205 16.295 0 0-69.697-71.622-69.697-71.622l-8.175-27.322-14.025-14.018 11.472-11.472 14.016 14.016 27.322 8.186 40.803 39.708 10.461-10.75-36.67-35.687 13.859-13.859c50.543 14.728 98.516-36.594 80.052-86.123.001.001-3.994-11.138-3.994-11.138l-36.85 36.851-20.437-5.637-4.667-19.247 36.96-36.961c-19.464-8.405-40.965-11.329-60.159-2.148v-89.706h-.006v-11.262c0-20.678-16.822-37.5-37.5-37.5h-55.257l-66.683-63.917v-40.733h-15v36.433h-70.015v-36.433h-15v40.732l-66.683 63.918h-21.502v15h5.853l-.1.096h264.878l-.1-.096h39.609c12.407 0 22.5 10.094 22.5 22.5v11.26h-388.9v-11.26c0-12.406 10.093-22.5 22.5-22.5h18.76v-15h-18.76c-20.678 0-37.5 16.822-37.5 37.5v275.35h285.517l-38.628 38.727c-20.464 20.327-5.844 55.903 23.103 55.773 8.729 0 16.934-3.397 23.103-9.567l69.113-69.122 65.73 67.545c7.285 7.335 16.708 11.179 26.472 11.179 34.045-.071 51.388-40.782 27.221-64.979.001 0-20.059-19.529-20.059-19.529zm-291.613-376.094h78.987l55.52 53.218h-190.027zm166.119 315.391-45.863-44.924-12.332.612-27.46-41.459 10.465-10.464 41.458 27.46-.617 12.424 45.819 44.88zm-166.323-13.085c-18.788-15.028-28.588-42.824-19.703-65.675 14.724 16.9 44.594 6.049 44.469-17.465 0-5.807-2.456-11.96-5.057-18.472-13.681-27.906-2.026-48.154 28.25-48.297-13.332 30.981 9.088 41.15 31.085 57.636l-17.651 17.65 35.026 52.88c-3.967 8.396-9.757 15.814-16.991 21.743zm110.439-16.323 4.211-.209 16.878 16.532h-31.12c3.997-4.995 7.367-10.473 10.031-16.323zm170.309-84.803-24.963 24.963 8.731 36.011 37.366 10.305 25.073-25.073c3.566 39.1-36.72 67.689-72.73 51.508l-22.656 22.656-21.169-6.342-11.321-11.321 30.169-29.959c-16.201-36.021 12.407-76.319 51.5-72.748zm-51.567 4.336c-17.183 17.188-23.537 41.465-17.139 64.356l-11.653 11.572v-164.465h33.761v84.036c-1.712 1.408-3.373 2.905-4.969 4.501zm-43.792-88.539v173.387l-38.099-37.318.706-14.219c-13.156-8.44-58.968-38.951-70.083-48.177-11.692-8.232-18.857-13.649-18.857-20.974 0-11.552 7.419-17.783 7.673-17.993l13.298-10.446c-43.95-12.183-100.784 3.563-74.249 65.02 1.961 4.909 3.988 9.985 3.988 12.909 0 5.873-4.777 10.65-10.65 10.65-9.221 0-10.492-8.473-10.658-11.005l-1.006-21.246c-25.189 29.317-37.963 66.054-8.498 104.74h-84.948v-185.328zm-306.383 234.09h-33.761v-234.088h33.761zm15 0v-33.761h252.836l8.88 8.698-24.999 25.062h-236.717zm218.727 89.327c-11.018 11.111-30.225 3.108-30.168-12.497 0-4.72 1.838-9.159 5.182-12.503l78.636-78.836 11.34 11.334 6.334 21.168z"/><g><path d="m186.953 70.618h15v15h-15z"/><path d="m216.953 70.618h15v15h-15z"/></g></g><g/><g/><g/><g/><g/><g/><g/><g/><g/><g/><g/><g/><g/><g/><g/></svg>